<?xml version="1.0" standalone="no"?>
<!DOCTYPE svg PUBLIC "-//W3C//DTD SVG 20010904//EN"
 "http://www.w3.org/TR/2001/REC-SVG-20010904/DTD/svg10.dtd">
<svg version="1.0" xmlns="http://www.w3.org/2000/svg"
 width="227.000000pt" height="222.000000pt" viewBox="0 0 227.000000 222.000000"
 preserveAspectRatio="xMidYMid meet">

<g transform="translate(0.000000,222.000000) scale(0.100000,-0.100000)"
fill="#000000" stroke="none">
<path d="M623 2196 c-100 -33 -187 -107 -226 -195 -14 -31 -22 -74 -25 -132
-4 -75 -1 -95 25 -170 16 -46 46 -110 66 -141 l37 -58 117 0 118 0 40 65 c22
36 42 65 45 65 4 0 37 -45 75 -100 37 -55 71 -100 75 -100 4 0 38 65 76 145
37 80 71 145 74 145 3 0 42 -69 86 -154 l79 -155 41 40 41 40 188 -1 189 -2
48 64 c27 34 61 88 76 118 24 49 27 66 27 155 0 90 -3 106 -28 158 -40 80
-112 151 -194 190 -64 30 -75 32 -178 32 -138 0 -176 -17 -290 -126 l-80 -77
-74 70 c-102 98 -176 131 -296 135 -57 2 -106 -2 -132 -11z"/>
<path d="M1055 1389 c-36 -74 -69 -135 -73 -137 -4 -1 -32 35 -62 79 -30 45
-65 95 -76 111 l-22 29 -20 -36 -21 -35 -103 0 -103 0 110 -108 c61 -59 185
-177 275 -263 l165 -156 265 258 265 259 -130 0 -129 0 -67 -66 -66 -66 -68
129 c-37 70 -69 130 -71 132 -2 2 -33 -57 -69 -130z"/>
<path d="M65 1377 c-79 -36 -79 -120 -1 -397 32 -113 67 -223 78 -245 33 -65
124 -171 265 -310 l132 -130 3 -140 3 -140 279 -3 c217 -2 281 1 288 10 13 21
9 295 -7 412 -8 60 -23 127 -34 150 -32 65 -116 140 -221 197 -105 57 -140 82
-285 215 -55 50 -110 96 -122 102 -27 15 -105 16 -119 2 -8 -8 -27 28 -64 115
-56 132 -79 160 -137 170 -15 3 -41 -1 -58 -8z m78 -87 c8 -12 45 -96 83 -187
l69 -166 150 -169 c127 -144 153 -168 175 -166 54 6 37 38 -115 208 -141 159
-169 200 -147 222 21 21 65 -5 173 -104 128 -119 175 -154 283 -211 94 -50
160 -106 186 -158 21 -40 39 -143 40 -216 l0 -43 -200 0 -201 0 -141 137
c-165 162 -259 269 -288 328 -20 41 -110 348 -131 446 -17 80 26 133 64 79z
m907 -1135 l0 -75 -220 0 -220 0 0 75 0 75 220 0 220 0 0 -75z"/>
<path d="M2130 1383 c-49 -18 -69 -47 -120 -168 -37 -90 -56 -123 -63 -116
-17 17 -100 13 -127 -6 -14 -9 -68 -56 -120 -103 -143 -128 -176 -153 -280
-209 -105 -57 -189 -132 -221 -197 -11 -23 -26 -90 -34 -150 -16 -117 -20
-391 -7 -412 7 -9 71 -12 288 -10 l279 3 3 140 3 140 136 135 c147 146 229
242 261 305 11 22 46 132 78 245 61 219 72 303 44 354 -23 43 -77 65 -120 49z
m61 -100 c6 -18 7 -42 0 -72 -16 -73 -107 -393 -123 -431 -24 -58 -127 -176
-287 -333 l-151 -147 -200 0 -200 0 0 41 c0 67 21 182 41 220 25 49 87 101
184 154 111 61 158 96 284 213 108 99 152 125 173 104 22 -22 -8 -68 -148
-223 -152 -168 -170 -200 -114 -207 22 -2 48 22 175 166 l150 169 69 166 c38
91 75 175 83 187 20 29 51 26 64 -7z m-531 -1128 l0 -75 -220 0 -220 0 0 75 0
75 220 0 220 0 0 -75z"/>
</g>
</svg>
